<?xml version="1.0" encoding="UTF-8" standalone="no"?>
<!-- Created with Inkscape (http://www.inkscape.org/) -->

<svg
   version="1.0"
   width="600"
   height="300"
   viewBox="0 0 475.248 228.092"
   id="Layer_1"
   xml:space="preserve"
   sodipodi:docname="usbsas_logo.svg"
   inkscape:version="1.1.2 (0a00cf5339, 2022-02-04, custom)"
   inkscape:export-xdpi="201.9998"
   inkscape:export-ydpi="201.9998"
   xmlns:inkscape="http://www.inkscape.org/namespaces/inkscape"
   xmlns:sodipodi="http://sodipodi.sourceforge.net/DTD/sodipodi-0.dtd"
   xmlns="http://www.w3.org/2000/svg"
   xmlns:svg="http://www.w3.org/2000/svg"
   xmlns:xhtml="http://www.w3.org/1999/xhtml"><sodipodi:namedview
   id="namedview6886"
   pagecolor="#000000"
   bordercolor="#666666"
   borderopacity="1.0"
   inkscape:pageshadow="2"
   inkscape:pageopacity="0.0"
   inkscape:pagecheckerboard="true"
   showgrid="false"
   inkscape:zoom="1.4142136"
   inkscape:cx="242.53762"
   inkscape:cy="152.02795"
   inkscape:window-width="2560"
   inkscape:window-height="1440"
   inkscape:window-x="0"
   inkscape:window-y="0"
   inkscape:window-maximized="1"
   inkscape:current-layer="g14480" /><defs
   id="defs1337" />
<path
   d="m 403.29404,108.93932 h -255.753 l 49.798,-52.612 c 4.238,-3.397 9.783,-5.78 15.487,-5.912 23.075,0 36.778,-0.006 41.822,-0.016 0,-16.52 0,0 0,-16.52 l -41.332,-0.007 c -11.202,0 -22.94,6.146 -30.411,13.351 0.204,-0.214 0.416,-0.442 -0.012,0.004 -0.158,0.178 -52.834,55.814 -52.834,55.814 -4.229,3.392 -9.771,5.76 -15.471,5.896 h -28.932 c -3.835,-19.113 -20.713,-33.513 -40.959,-33.513 -23.083,0 -41.794,18.711 -41.794,41.787 0,23.083 18.711,41.795 41.794,41.795 20.25,0 37.128,-14.412 40.963,-33.541 h 28.425 c 0.073,0 0.146,0.004 0.22,0 h 62.871 c 5.689,0.145 11.224,2.516 15.449,5.912 0,0 52.664,55.632 52.827,55.812 0.422,0.447 0.212,0.214 0.004,0.004 7.471,7.204 19.214,13.346 30.418,13.346 l 39.832,-0.009 0.12061,-7.94305 -0.12061,-8.56995 c 0,0 -10.491,-0.019 -40.32,-0.019 -5.705,-0.131 -11.256,-2.511 -15.492,-5.908 l -49.809,-52.622 h 193.209 z"
   id="path1334"
   sodipodi:nodetypes="ccccccccccccssscscccccccccccccc"
   style="fill:#000000" />
<xhtml:iframe
   class="cleanslate hidden"
   src="USB_icon_files/commandline.html"
   id="cmdline_iframe"
   loading="lazy"
   style="height: 0px !important;" /><g
   id="g14480"
   transform="matrix(2.2070441,0,0,2.6526892,351.21034,70.727394)"><path
     id="path13490"
     d="m 23,31.5 v -28 l 28.4,14 z"
     style="fill:none;stroke:#000000;stroke-width:1mm;stroke-linecap:square;stroke-opacity:1" /><path
     id="path14470"
     style="fill:#000000;stroke:#000000;stroke-width:1mm;stroke-linecap:square;stroke-opacity:1"
     d="M 53.800344,31.5 V 3.5" /></g><g
   id="g8459"
   transform="matrix(1.5794008,0,0,1.6939928,-1297.0379,-1498.8731)"
   style="fill:#000000"><g
     id="g8404"
     style="fill:#000000">
	<g
   id="g8402"
   style="fill:#000000">
		<path
   d="m 1018.8057,977.065 c -10e-5,14.38585 -10e-5,28.7718 -2e-4,43.1576 15.9465,0 32.4162,0 46.1123,0 v -43.15755 c -14.6023,-1e-5 -31.5099,-3e-5 -46.1121,-5e-5 z m 2.3054,2.69736 h 13.8337 v 10.7894 h -13.8337 z m 0,13.48676 h 27.6673 v 10.78948 h -27.6673 z m 13.8337,24.27628 h -13.8337 v -10.7894 h 13.8337 z m 27.6674,0 h -25.3618 v -10.7894 h 25.3618 z m 0,-13.4868 h -11.5281 v -10.78948 h 11.5281 z m 0,-13.48684 h -25.3618 v -10.7894 h 25.3618 z"
   id="path11353"
   style="stroke-width:0.0974143;fill:#000000"
   sodipodi:nodetypes="ccccccccccccccccccccccccccccccccccc" />
	</g>
</g><g
     id="g8406"
     style="fill:#000000">
</g><g
     id="g8408"
     style="fill:#000000">
</g><g
     id="g8410"
     style="fill:#000000">
</g><g
     id="g8412"
     style="fill:#000000">
</g><g
     id="g8414"
     style="fill:#000000">
</g><g
     id="g8416"
     style="fill:#000000">
</g><g
     id="g8418"
     style="fill:#000000">
</g><g
     id="g8420"
     style="fill:#000000">
</g><g
     id="g8422"
     style="fill:#000000">
</g><g
     id="g8424"
     style="fill:#000000">
</g><g
     id="g8426"
     style="fill:#000000">
</g><g
     id="g8428"
     style="fill:#000000">
</g><g
     id="g8430"
     style="fill:#000000">
</g><g
     id="g8432"
     style="fill:#000000">
</g><g
     id="g8434"
     style="fill:#000000">
</g></g><path
   id="path90"
   style="fill:#000000"
   d="m 293.41724,-3.0398079 c -0.45873,0 -0.87712,0.231534 -1.11165,0.611779 l -2.36324,3.759124 c -0.37184,0.02996 -0.74455,0.06676 -1.11289,0.106879 l -3.0577,-3.229648 c -0.31016,-0.326398 -0.77092,-0.473268 -1.21656,-0.38697 -0.44746,0.08795 -0.81582,0.396539 -0.97307,0.816928 l -1.56382,4.126443 c -0.36314,0.102487 -0.72222,0.210779 -1.07668,0.321861 l -3.63227,-2.571194 c -0.36922,-0.262319 -0.84989,-0.317562 -1.26778,-0.14495 -0.41963,0.170908 -0.72141,0.544069 -0.79437,0.981552 l -0.72075,4.350017 c -0.33362,0.170044 -0.66382,0.344755 -0.9905,0.523332 l -4.07443,-1.827964 c -0.4144,-0.186271 -0.8955,-0.148768 -1.27778,0.10069 -0.37877,0.247793 -0.59945,0.673481 -0.58206,1.120359 l 0.15612,4.4175979 c -0.29015,0.22814 -0.57775,0.460718 -0.86184,0.696547 l -4.37048,-1.0171879 c -0.44392,-0.101697 -0.91135,0.02907 -1.23281,0.3452029 -0.32318,0.317012 -0.45524,0.773319 -0.35098,1.212508 l 1.02547,4.298429 c -0.2389,0.278549 -0.47499,0.561032 -0.70698,0.846412 l -4.49161,-0.154769 c -0.45262,-0.01284 -0.88592,0.201145 -1.1379,0.573685 -0.25366,0.370843 -0.29218,0.846592 -0.10366,1.256734 l 1.85851,4.01588 c -0.18067,0.322131 -0.35922,0.646924 -0.53211,0.974183 l -4.42165,0.706361 c -0.44918,0.07176 -0.82812,0.367756 -0.99926,0.781315 -0.17374,0.414411 -0.11774,0.889248 0.14722,1.248132 l 2.61554,3.571168 c -0.11378,0.35289 -0.22424,0.70819 -0.32848,1.06877 l -4.19685,1.53682 c -0.42571,0.15638 -0.73952,0.51987 -0.82814,0.95822 -0.0887,0.43918 0.0606,0.88769 0.39349,1.1953 l 3.28375,3.00852 c -0.041,0.36315 -0.0773,0.7285 -0.10883,1.09335 l -3.81336,2.32428 c -0.38661,0.23496 -0.62203,0.64991 -0.62203,1.10193 0,0.45201 0.23541,0.86263 0.62203,1.09334 l 3.81336,2.32427 c 0.0313,0.36571 0.0678,0.73142 0.10883,1.09458 l -3.28375,3.00729 c -0.33278,0.30504 -0.48209,0.7582 -0.39349,1.19654 0.0887,0.44004 0.40243,0.80147 0.82814,0.95698 l 4.19685,1.53805 c 0.10409,0.35716 0.21468,0.71123 0.32848,1.06754 l -2.61554,3.57117 c -0.26581,0.364 -0.32199,0.83713 -0.14722,1.24813 0.17473,0.41441 0.55448,0.71039 1.00797,0.7813 l 4.42167,0.70761 c 0.17295,0.32983 0.34967,0.65461 0.53212,0.97418 l -1.85861,4.00728 c -0.18936,0.40759 -0.14999,0.87952 0.10367,1.25549 0.25368,0.37341 0.68525,0.59165 1.13786,0.5737 l 4.48287,-0.15478 c 0.23372,0.2871 0.46846,0.56824 0.70823,0.84765 l -1.0242,4.29721 c -0.10409,0.43576 0.0265,0.88896 0.34971,1.20512 0.32056,0.31871 0.7875,0.44652 1.23408,0.34399 l 4.3693,-1.0086 c 0.28407,0.23753 0.5717,0.46801 0.86184,0.69532 l -0.15612,4.41759 c -0.0159,0.44688 0.20452,0.87133 0.58333,1.11914 0.37704,0.24864 0.85953,0.287 1.27651,0.10065 l 4.07444,-1.82919 c 0.3284,0.17944 0.65864,0.35451 0.99052,0.52455 l 0.72195,4.34881 c 0.073,0.44259 0.37267,0.81705 0.79314,0.99138 0.41964,0.17173 0.90417,0.11561 1.26905,-0.14496 l 3.631,-2.57118 c 0.35883,0.11188 0.72007,0.22054 1.08671,0.32308 l 1.56382,4.12767 c 0.1589,0.41869 0.52733,0.72903 0.97302,0.81448 0.44655,0.0888 0.90254,-0.0589 1.21533,-0.38697 l 3.05893,-3.22967 c 0.36924,0.042 0.7407,0.0769 1.11166,0.10929 l 2.36324,3.75174 c 0.23801,0.37854 0.66075,0.6118 1.11166,0.6118 0.45089,0 0.87713,-0.23241 1.12039,-0.6118 l 2.36322,-3.75174 c 0.37185,-0.0324 0.74367,-0.0674 1.11291,-0.10929 l 3.0577,3.22967 c 0.31014,0.32811 0.77091,0.47584 1.21656,0.38697 0.44746,-0.0863 0.81578,-0.39579 0.97304,-0.81448 l 1.56382,-4.12767 c 0.36313,-0.10252 0.72314,-0.21115 1.08542,-0.32308 l 3.63225,2.57118 c 0.36925,0.26062 0.84994,0.31671 1.26782,0.14496 0.42047,-0.17004 0.72143,-0.54536 0.79441,-0.99138 l 0.72069,-4.34881 c 0.33362,-0.17003 0.66384,-0.34767 0.99049,-0.52455 l 4.07444,1.82919 c 0.41442,0.18628 0.89554,0.14791 1.2778,-0.10065 0.37878,-0.24951 0.59857,-0.67226 0.58206,-1.11914 l -0.15612,-4.41759 c 0.29017,-0.22815 0.57737,-0.45779 0.86059,-0.69532 l 4.37046,1.0086 c 0.44395,0.10251 0.91262,-0.0254 1.23408,-0.34399 0.32318,-0.31701 0.45399,-0.77277 0.34974,-1.20512 l -1.02553,-4.29722 c 0.2398,-0.27941 0.47588,-0.56056 0.70697,-0.84766 l 4.49161,0.15479 c 0.45261,0.0179 0.88722,-0.20029 1.13916,-0.57369 0.25368,-0.37255 0.29269,-0.84622 0.10229,-1.2555 l -1.85985,-4.00727 c 0.18145,-0.32386 0.36008,-0.64865 0.5321,-0.97419 l 4.42168,-0.7076 c 0.45003,-0.0708 0.82896,-0.3669 0.99925,-0.78131 0.17374,-0.41271 0.11933,-0.88926 -0.14721,-1.24813 l -2.61554,-3.57118 c 0.11279,-0.3529 0.22339,-0.70696 0.32852,-1.06755 l 4.19679,-1.53804 c 0.42661,-0.15722 0.74001,-0.51864 0.82692,-0.95698 0.0905,-0.43919 -0.0585,-0.88894 -0.39222,-1.19654 l -3.28377,-3.00729 c 0.0399,-0.36316 0.0764,-0.72973 0.10883,-1.09458 l 3.81338,-2.32428 c 0.38662,-0.23411 0.62201,-0.64987 0.62201,-1.09333 0,-0.44347 -0.23415,-0.8627 -0.62076,-1.10194 h -0.0275 l -3.81339,-2.32427 c -0.032,-0.36571 -0.0687,-0.7302 -0.10883,-1.09335 l 3.28375,-3.00853 c 0.33366,-0.30589 0.48384,-0.75782 0.39347,-1.19529 -0.0876,-0.44006 -0.40155,-0.80356 -0.8281,-0.95822 l -4.19686,-1.53682 c -0.10504,-0.35716 -0.21557,-0.71246 -0.32847,-1.06877 l 2.61551,-3.571172 c 0.26672,-0.363152 0.32113,-0.836278 0.14721,-1.248129 -0.17373,-0.412712 -0.55356,-0.708674 -0.99927,-0.781317 l -4.42166,-0.706359 c -0.17215,-0.329831 -0.35133,-0.654611 -0.53206,-0.974184 l 1.85988,-4.015878 c 0.19016,-0.408431 0.15138,-0.880772 -0.1025,-1.256733 -0.2528,-0.372541 -0.68091,-0.590777 -1.1379,-0.573689 l -4.49157,0.154769 c -0.23199,-0.285372 -0.46882,-0.568706 -0.70948,-0.846407 l 1.0342,-4.298428 c 0.10409,-0.436629 -0.0277,-0.896359 -0.35097,-1.212509 -0.32058,-0.3161499 -0.78541,-0.4477269 -1.23284,-0.3451999 L 319.9458,10.73256 c -0.28325,-0.23583 -0.57083,-0.468408 -0.86186,-0.696549 l 0.1573,-4.4175969 c 0.0159,-0.446879 -0.20452,-0.872566 -0.5833,-1.120356 -0.37968,-0.249513 -0.85951,-0.286163 -1.27654,-0.100689 l -4.07444,1.827964 c -0.32924,-0.177716 -0.65946,-0.353289 -0.99047,-0.523328 l -0.72227,-4.350028 c -0.073,-0.440902 -0.37263,-0.814085 -0.79312,-0.981553 -0.41962,-0.171753 -0.90418,-0.116521 -1.26906,0.144951 l -3.63101,2.571191 c -0.35793,-0.111869 -0.71826,-0.219318 -1.07792,-0.32186 l -1.5638,-4.126444 c -0.1589,-0.420391 -0.52732,-0.729777 -0.97301,-0.816926 -0.44654,-0.08629 -0.90259,0.06057 -1.21535,0.386967 l -3.05894,3.22965 c -0.36922,-0.04012 -0.74068,-0.07689 -1.11163,-0.106848 l -2.36326,-3.759126 c -0.23842,-0.380261 -0.66119,-0.611795 -1.1199,-0.611795 z m -0.20362,7.932251 c 0.6907,0.01605 1.37602,0.291653 1.88859,0.821849 1.02517,1.059533 0.98995,2.743547 -0.0898,3.760348 -1.07728,1.0168139 -2.78946,0.9740169 -3.81462,-0.08718 -1.02493,-1.059315 -0.98928,-2.742251 0.0898,-3.759127 0.53865,-0.508412 1.23539,-0.751985 1.92603,-0.73586 z m 6.23533,4.337739 c 9.73031,1.7858229 17.9833,7.7490679 22.7616,15.9775209 l -3.18762,7.076005 c -0.54994,1.22188 0.009,2.65695 1.25032,3.19527 l 6.13411,2.68297 c 0.7638,9.05252 -0.97285,17.15381 -9.24304,26.15173 l -5.71692,-1.2039 -0.0475,0.0233 c -1.32924,-0.28026 -2.64105,0.55285 -2.91907,1.8636 l -1.35522,6.21976 c -4.17887,1.86273 -8.86199,2.90534 -13.72713,2.90534 -5.00421,0 -9.72996,-1.08494 -13.98698,-3.03311 l -1.35525,-6.22098 c -0.28494,-1.30732 -1.5898,-2.14434 -2.91901,-1.86237 l -5.58707,1.17934 c -6.05009,-5.25032 -9.11314,-16.14631 -8.48081,-26.23619 8.57226,-3.24489 8.69704,-3.1866 3.66882,-11.188622 4.68496,-9.49589 10.09828,-14.89383 22.40871,-17.5235709 l 4.16189,4.2898369 c 0.93829,0.965543 2.49319,1.008275 3.48359,0.07857 z M 260.92799,28.957008 c 1.05107,-0.0179 2.05947,0.57374 2.51558,1.57858 0.60466,1.34152 -0.01,2.91409 -1.37271,3.51221 -1.36398,0.59556 -2.95417,-0.0104 -3.56231,-1.35009 -0.60815,-1.33981 0.01,-2.9141 1.37271,-3.51221 0.34103,-0.14871 0.69634,-0.22251 1.04673,-0.22849 z m 64.49761,0.12654 c 0.35072,0.006 0.70697,0.0803 1.04798,0.22975 1.36396,0.5947 1.98085,2.17069 1.37271,3.5122 -0.60379,1.3415 -2.19833,1.9482 -3.56231,1.35009 -1.36399,-0.59472 -1.98088,-2.17071 -1.37272,-3.51221 0.45285,-1.00613 1.46226,-1.59865 2.51434,-1.57983 z m -52.22936,37.2891 c 1.25644,-0.0104 2.38807,0.84538 2.66172,2.10067 0.31191,1.43552 -0.61549,2.8545 -2.07589,3.16209 -1.45961,0.30932 -2.89361,-0.60451 -3.20635,-2.04171 -0.31191,-1.43549 0.6159,-2.85449 2.07716,-3.16208 0.18244,-0.0383 0.36384,-0.0573 0.54336,-0.0589 z m 40.09226,0.12769 c 0.17949,0.001 0.36215,0.0205 0.54459,0.0589 1.45956,0.30676 2.38873,1.72658 2.07596,3.16209 -0.31278,1.43549 -1.74678,2.34932 -3.20635,2.04173 h -0.01 c -1.45956,-0.30932 -2.37998,-1.72538 -2.0672,-3.16088 0.27289,-1.25605 1.40514,-2.11335 2.66173,-2.10191 z"
   sodipodi:nodetypes="scccccccccccccccccccccccccccccccccccccccscccccccccccccccccccccccccccccccccccccccscccccccccccccccccccccccccccccccccccccccsccccccccccccccccccccccccccccccccccccccccssccccsccccccccccsccccccccccsccscssccccscccccccccsccccc" /></svg>
