<?xml version="1.0" encoding="utf-8"?>
<!-- Svg Vector Icons : http://www.onlinewebfonts.com/icon -->
<!DOCTYPE svg PUBLIC "-//W3C//DTD SVG 1.1//EN" "http://www.w3.org/Graphics/SVG/1.1/DTD/svg11.dtd">
<svg version="1.1" xmlns="http://www.w3.org/2000/svg" xmlns:xlink="http://www.w3.org/1999/xlink" x="0px" y="0px" viewBox="0 0 1000 1000" enable-background="new 0 0 1000 1000" xml:space="preserve">
<metadata> Svg Vector Icons : http://www.onlinewebfonts.com/icon </metadata>
<g><g transform="translate(0.000000,512.000000) scale(0.100000,-0.100000)"><path d="M7862.8,5000.2c-53.6-28.7-1810.1-1783.3-1810.1-1808.2s1995.9-2020.8,2020.8-2020.8c11.5,0,421.4,402.3,913.7,896.4c597.6,597.6,898.3,911.8,906,948.2c7.7,28.7,9.6,70.9,1.9,95.8c-5.7,23-431,461.6-944.3,976.9c-819.8,817.9-942.4,932.8-992.2,932.8C7926,5021.2,7883.9,5011.7,7862.8,5000.2z M7763.2,3760.9l185.8-185.8l-191.6-191.5L7565.9,3192l-191.6,191.5l-191.5,191.5l185.8,185.8c103.4,103.4,191.6,187.7,197.3,187.7S7659.8,3864.3,7763.2,3760.9z M8657.7,2866.3l182-182l-191.5-191.5l-191.5-191.5l-191.6,191.5l-191.5,191.5l182,182c99.6,99.6,189.6,182,201.1,182C8468.1,3048.3,8558.1,2965.9,8657.7,2866.3z"/><path d="M4844,3444.8c-38.3-15.3-93.9-44.1-124.5-67c-30.6-21.1-961.6-948.2-2068.7-2057.2C1110.8-223.3,614.7-730.9,538.1-845.8C99.4-1493.3-17.4-2307.3,222-3050.5c197.3-612.9,664.7-1162.7,1245.1-1457.7c699.1-358.2,1559.2-363.9,2252.6-17.2c371.6,185.8,331.4,149.4,2492,2304.3C7341.8-1094.8,8261.2-162,8288.1-114.1c38.3,61.3,51.7,116.8,59.4,224.1c17.2,266.3,86.2,185.8-1561.1,1829.3c-992.2,988.4-1476.8,1459.6-1528.5,1484.5C5162,3467.8,4937.9,3479.3,4844,3444.8z"/></g></g>
</svg>