<?xml version="1.0" encoding="UTF-8" standalone="no"?>
<!-- Created with Inkscape (http://www.inkscape.org/) -->

<svg
   width="35.915863mm"
   height="35.924973mm"
   viewBox="0 0 35.915863 35.924973"
   version="1.1"
   id="svg6397"
   inkscape:version="1.1.2 (0a00cf5339, 2022-02-04, custom)"
   sodipodi:docname="usb_key_source.svg"
   xmlns:inkscape="http://www.inkscape.org/namespaces/inkscape"
   xmlns:sodipodi="http://sodipodi.sourceforge.net/DTD/sodipodi-0.dtd"
   xmlns="http://www.w3.org/2000/svg"
   xmlns:svg="http://www.w3.org/2000/svg"
   xmlns:rdf="http://www.w3.org/1999/02/22-rdf-syntax-ns#"
   xmlns:cc="http://creativecommons.org/ns#"
   xmlns:dc="http://purl.org/dc/elements/1.1/">
  <defs
     id="defs6391" />
  <sodipodi:namedview
     id="base"
     pagecolor="#ffffff"
     bordercolor="#666666"
     borderopacity="1.0"
     inkscape:pageopacity="0.0"
     inkscape:pageshadow="2"
     inkscape:zoom="1.979899"
     inkscape:cx="102.02541"
     inkscape:cy="156.06857"
     inkscape:document-units="mm"
     inkscape:current-layer="g6240"
     showgrid="false"
     fit-margin-top="0"
     fit-margin-left="0"
     fit-margin-right="0"
     fit-margin-bottom="0"
     inkscape:window-width="2560"
     inkscape:window-height="1440"
     inkscape:window-x="0"
     inkscape:window-y="0"
     inkscape:window-maximized="1"
     inkscape:pagecheckerboard="0" />
  <metadata
     id="metadata6394">
    <rdf:RDF>
      <cc:Work
         rdf:about="">
        <dc:format>image/svg+xml</dc:format>
        <dc:type
           rdf:resource="http://purl.org/dc/dcmitype/StillImage" />
      </cc:Work>
    </rdf:RDF>
  </metadata>
  <g
     inkscape:label="Calque 1"
     inkscape:groupmode="layer"
     id="layer1"
     transform="translate(-78.803974,-90.049418)">
    <g
       id="g6240"
       transform="translate(65.575087,-11.930795)">
      <g
         style="fill:#b70e0b;fill-opacity:1"
         transform="matrix(0.03664876,0,0,0.03664876,12.862432,101.61849)"
         id="g197">
        <g
           style="fill:#b70e0b;fill-opacity:1"
           transform="matrix(0.1,0,0,-0.1,0,512)"
           id="g195">
          <path
             style="fill:#b70e0b;fill-opacity:1"
             inkscape:connector-curvature="0"
             d="M 7862.8,5000.2 C 7809.2,4971.5 6052.7,3216.9 6052.7,3192 c 0,-24.9 1995.9,-2020.8 2020.8,-2020.8 11.5,0 421.4,402.3 913.7,896.4 597.6,597.6 898.3,911.8 906,948.2 7.7,28.7 9.6,70.9 1.9,95.8 -5.7,23 -431,461.6 -944.3,976.9 -819.8,817.9 -942.4,932.8 -992.2,932.8 -32.6,-0.1 -74.7,-9.6 -95.8,-21.1 z M 7763.2,3760.9 7949,3575.1 7757.4,3383.6 7565.9,3192 l -191.6,191.5 -191.5,191.5 185.8,185.8 c 103.4,103.4 191.6,187.7 197.3,187.7 5.7,0 93.9,-84.2 197.3,-187.6 z m 894.5,-894.6 182,-182 -191.5,-191.5 -191.5,-191.5 -191.6,191.5 -191.5,191.5 182,182 c 99.6,99.6 189.6,182 201.1,182 11.4,0 101.4,-82.4 201,-182 z"
             id="path191" />
          <path
             style="fill:#b70e0b;fill-opacity:1"
             inkscape:connector-curvature="0"
             d="m 4844,3444.8 c -38.3,-15.3 -93.9,-44.1 -124.5,-67 C 4688.9,3356.7 3757.9,2429.6 2650.8,1320.6 1110.8,-223.3 614.7,-730.9 538.1,-845.8 99.4,-1493.3 -17.4,-2307.3 222,-3050.5 c 197.3,-612.9 664.7,-1162.7 1245.1,-1457.7 699.1,-358.2 1559.2,-363.9 2252.6,-17.2 371.6,185.8 331.4,149.4 2492,2304.3 1130.1,1126.3 2049.5,2059.1 2076.4,2107 38.3,61.3 51.7,116.8 59.4,224.1 17.2,266.3 86.2,185.8 -1561.1,1829.3 -992.2,988.4 -1476.8,1459.6 -1528.5,1484.5 -95.9,44 -320,55.5 -413.9,21 z"
             id="path193" />
        </g>
      </g>
      <path
         id="path6183"
         d="m 34.314979,122.05416 c 0.875689,0.23914 1.163139,1.33805 0.519629,1.97584 l -8.3766,8.30201 c -0.644749,0.63901 -1.740255,0.3388 -1.971114,-0.53728 l -3.008918,-11.413 c -0.231402,-0.8782 0.576963,-1.67736 1.451486,-1.43855 z m -6.402012,3.36884 c -0.443454,0.43951 -0.446652,1.15529 -0.0071,1.59875 0.439508,0.44345 1.155292,0.44665 1.598747,0.007 0.443454,-0.4395 0.446658,-1.15529 0.0071,-1.59875 -0.439503,-0.44344 -1.155292,-0.44665 -1.598747,-0.007 z m -3.622808,-2.13064 2.482279,2.2456 c 0.116151,0.10508 0.294194,0.10102 0.405438,-0.009 l 0.847389,-0.83984 c 0.111243,-0.11026 0.116902,-0.28825 0.01286,-0.40534 l -2.223311,-2.50226 c -0.112377,-0.12648 -0.307901,-0.13269 -0.428063,-0.0136 l -1.106375,1.09652 c -0.120163,0.11909 -0.115687,0.31465 0.0098,0.42815 z"
         inkscape:connector-curvature="0"
         style="fill:#ffffff;stroke-width:0.02457599" />
    </g>
  </g>
</svg>
