<?xml version="1.0" encoding="UTF-8" standalone="no"?>
<!-- Created with Inkscape (http://www.inkscape.org/) -->

<svg
   width="35.915863mm"
   height="35.924973mm"
   viewBox="0 0 35.915863 35.924973"
   version="1.1"
   id="svg6397"
   inkscape:version="1.1.2 (0a00cf5339, 2022-02-04, custom)"
   sodipodi:docname="usb_key_destination.svg"
   xmlns:inkscape="http://www.inkscape.org/namespaces/inkscape"
   xmlns:sodipodi="http://sodipodi.sourceforge.net/DTD/sodipodi-0.dtd"
   xmlns="http://www.w3.org/2000/svg"
   xmlns:svg="http://www.w3.org/2000/svg"
   xmlns:rdf="http://www.w3.org/1999/02/22-rdf-syntax-ns#"
   xmlns:cc="http://creativecommons.org/ns#"
   xmlns:dc="http://purl.org/dc/elements/1.1/">
  <defs
     id="defs6391">
    <clipPath
       id="clipPath24"
       clipPathUnits="userSpaceOnUse">
      <path
         inkscape:connector-curvature="0"
         id="path22"
         d="M 923.523,813.121 H 3399.71 V 918.48 H 923.523 V 813.121" />
    </clipPath>
  </defs>
  <sodipodi:namedview
     id="base"
     pagecolor="#ffffff"
     bordercolor="#666666"
     borderopacity="1.0"
     inkscape:pageopacity="0.0"
     inkscape:pageshadow="2"
     inkscape:zoom="5.6"
     inkscape:cx="55.357143"
     inkscape:cy="84.107143"
     inkscape:document-units="mm"
     inkscape:current-layer="g1995"
     showgrid="false"
     fit-margin-top="0"
     fit-margin-left="0"
     fit-margin-right="0"
     fit-margin-bottom="0"
     inkscape:window-width="2560"
     inkscape:window-height="1440"
     inkscape:window-x="0"
     inkscape:window-y="0"
     inkscape:window-maximized="1"
     inkscape:pagecheckerboard="0" />
  <metadata
     id="metadata6394">
    <rdf:RDF>
      <cc:Work
         rdf:about="">
        <dc:format>image/svg+xml</dc:format>
        <dc:type
           rdf:resource="http://purl.org/dc/dcmitype/StillImage" />
      </cc:Work>
    </rdf:RDF>
  </metadata>
  <g
     inkscape:label="Calque 1"
     inkscape:groupmode="layer"
     id="layer1"
     transform="translate(-78.803974,-90.049418)">
    <g
       id="g1995"
       transform="translate(-56.51122,37.20611)">
      <g
         id="g223"
         transform="matrix(0.03664876,0,0,0.03664876,134.94874,52.481584)"
         style="fill:#77b72b;fill-opacity:1">
        <g
           id="g221"
           transform="matrix(0.1,0,0,-0.1,0,512)"
           style="fill:#77b72b;fill-opacity:1">
          <path
             id="path217"
             d="M 7862.8,5000.2 C 7809.2,4971.5 6052.7,3216.9 6052.7,3192 c 0,-24.9 1995.9,-2020.8 2020.8,-2020.8 11.5,0 421.4,402.3 913.7,896.4 597.6,597.6 898.3,911.8 906,948.2 7.7,28.7 9.6,70.9 1.9,95.8 -5.7,23 -431,461.6 -944.3,976.9 -819.8,817.9 -942.4,932.8 -992.2,932.8 -32.6,-0.1 -74.7,-9.6 -95.8,-21.1 z M 7763.2,3760.9 7949,3575.1 7757.4,3383.6 7565.9,3192 l -191.6,191.5 -191.5,191.5 185.8,185.8 c 103.4,103.4 191.6,187.7 197.3,187.7 5.7,0 93.9,-84.2 197.3,-187.6 z m 894.5,-894.6 182,-182 -191.5,-191.5 -191.5,-191.5 -191.6,191.5 -191.5,191.5 182,182 c 99.6,99.6 189.6,182 201.1,182 11.4,0 101.4,-82.4 201,-182 z"
             inkscape:connector-curvature="0"
             style="fill:#77b72b;fill-opacity:1" />
          <path
             id="path219"
             d="m 4844,3444.8 c -38.3,-15.3 -93.9,-44.1 -124.5,-67 C 4688.9,3356.7 3757.9,2429.6 2650.8,1320.6 1110.8,-223.3 614.7,-730.9 538.1,-845.8 99.4,-1493.3 -17.4,-2307.3 222,-3050.5 c 197.3,-612.9 664.7,-1162.7 1245.1,-1457.7 699.1,-358.2 1559.2,-363.9 2252.6,-17.2 371.6,185.8 331.4,149.4 2492,2304.3 1130.1,1126.3 2049.5,2059.1 2076.4,2107 38.3,61.3 51.7,116.8 59.4,224.1 17.2,266.3 86.2,185.8 -1561.1,1829.3 -992.2,988.4 -1476.8,1459.6 -1528.5,1484.5 -95.9,44 -320,55.5 -413.9,21 z"
             inkscape:connector-curvature="0"
             style="fill:#77b72b;fill-opacity:1" />
        </g>
      </g>
      <g
         id="g10"
         inkscape:label="ink_ext_XXXXXX"
         transform="matrix(0.04486551,-0.04387014,-0.04387014,-0.04486551,145.41246,92.521245)">
        <g
           id="g18"
           transform="scale(0.1)"
           style="fill:#ffffff" />
      </g>
    </g>
  </g>
</svg>
