<?xml version="1.0" encoding="UTF-8" standalone="no"?>
<!-- Created with Inkscape (http://www.inkscape.org/) -->

<svg
   width="296.99997mm"
   height="210mm"
   viewBox="0 0 1122.5196 793.70081"
   version="1.1"
   id="svg1"
   xml:space="preserve"
   xmlns="http://www.w3.org/2000/svg"
   xmlns:svg="http://www.w3.org/2000/svg"><defs
     id="defs1"><marker
       style="overflow:visible"
       id="marker2007"
       refX="0"
       refY="0"
       orient="auto"><path
         transform="matrix(-1.1,0,0,-1.1,-1.1,0)"
         d="M 8.7185878,4.0337352 -2.2072895,0.01601326 8.7185884,-4.0017078 c -1.7454984,2.3720609 -1.7354408,5.6174519 -6e-7,8.035443 z"
         style="fill:#353535;fill-opacity:1;fill-rule:evenodd;stroke:#353535;stroke-width:0.625;stroke-linejoin:round;stroke-opacity:1"
         id="path2005" /></marker><marker
       orient="auto"
       refY="0"
       refX="0"
       id="Arrow2Lend"
       style="overflow:visible"><path
         id="path1645"
         style="fill:#353535;fill-opacity:1;fill-rule:evenodd;stroke:#353535;stroke-width:0.625;stroke-linejoin:round;stroke-opacity:1"
         d="M 8.7185878,4.0337352 -2.2072895,0.01601326 8.7185884,-4.0017078 c -1.7454984,2.3720609 -1.7354408,5.6174519 -6e-7,8.035443 z"
         transform="matrix(-1.1,0,0,-1.1,-1.1,0)" /></marker></defs><g
     id="layer1"><g
       id="layer1-8"
       transform="matrix(3.7795276,0,0,3.7795276,210.9756,-64.847141)"><path
         style="fill:none;stroke:#353535;stroke-width:1.265;stroke-linecap:butt;stroke-linejoin:miter;stroke-miterlimit:4;stroke-dasharray:none;stroke-opacity:1;marker-end:url(#Arrow2Lend)"
         d="M 50.270833,120.86309 H 97.895832 V 84.577379 h 30.994048"
         id="path1622" /><path
         id="path2003"
         d="M 50.270833,120.86309 H 97.895832 V 157.1488 H 128.88988"
         style="fill:none;stroke:#353535;stroke-width:1.265;stroke-linecap:butt;stroke-linejoin:miter;stroke-miterlimit:4;stroke-dasharray:none;stroke-opacity:1;marker-end:url(#marker2007)" /></g><g
       id="g6240"
       transform="matrix(3.7795276,0,0,3.7795276,201.53014,-67.405477)"><g
         style="fill:#b70e0b;fill-opacity:1"
         transform="matrix(0.03664876,0,0,0.03664876,12.862432,101.61849)"
         id="g197"><g
           style="fill:#b70e0b;fill-opacity:1"
           transform="matrix(0.1,0,0,-0.1,0,512)"
           id="g195"><path
             style="fill:#b70e0b;fill-opacity:1"
             d="M 7862.8,5000.2 C 7809.2,4971.5 6052.7,3216.9 6052.7,3192 c 0,-24.9 1995.9,-2020.8 2020.8,-2020.8 11.5,0 421.4,402.3 913.7,896.4 597.6,597.6 898.3,911.8 906,948.2 7.7,28.7 9.6,70.9 1.9,95.8 -5.7,23 -431,461.6 -944.3,976.9 -819.8,817.9 -942.4,932.8 -992.2,932.8 -32.6,-0.1 -74.7,-9.6 -95.8,-21.1 z M 7763.2,3760.9 7949,3575.1 7757.4,3383.6 7565.9,3192 l -191.6,191.5 -191.5,191.5 185.8,185.8 c 103.4,103.4 191.6,187.7 197.3,187.7 5.7,0 93.9,-84.2 197.3,-187.6 z m 894.5,-894.6 182,-182 -191.5,-191.5 -191.5,-191.5 -191.6,191.5 -191.5,191.5 182,182 c 99.6,99.6 189.6,182 201.1,182 11.4,0 101.4,-82.4 201,-182 z"
             id="path191" /><path
             style="fill:#b70e0b;fill-opacity:1"
             d="m 4844,3444.8 c -38.3,-15.3 -93.9,-44.1 -124.5,-67 C 4688.9,3356.7 3757.9,2429.6 2650.8,1320.6 1110.8,-223.3 614.7,-730.9 538.1,-845.8 99.4,-1493.3 -17.4,-2307.3 222,-3050.5 c 197.3,-612.9 664.7,-1162.7 1245.1,-1457.7 699.1,-358.2 1559.2,-363.9 2252.6,-17.2 371.6,185.8 331.4,149.4 2492,2304.3 1130.1,1126.3 2049.5,2059.1 2076.4,2107 38.3,61.3 51.7,116.8 59.4,224.1 17.2,266.3 86.2,185.8 -1561.1,1829.3 -992.2,988.4 -1476.8,1459.6 -1528.5,1484.5 -95.9,44 -320,55.5 -413.9,21 z"
             id="path193" /></g></g><path
         id="path6183"
         d="m 34.314979,122.05416 c 0.875689,0.23914 1.163139,1.33805 0.519629,1.97584 l -8.3766,8.30201 c -0.644749,0.63901 -1.740255,0.3388 -1.971114,-0.53728 l -3.008918,-11.413 c -0.231402,-0.8782 0.576963,-1.67736 1.451486,-1.43855 z m -6.402012,3.36884 c -0.443454,0.43951 -0.446652,1.15529 -0.0071,1.59875 0.439508,0.44345 1.155292,0.44665 1.598747,0.007 0.443454,-0.4395 0.446658,-1.15529 0.0071,-1.59875 -0.439503,-0.44344 -1.155292,-0.44665 -1.598747,-0.007 z m -3.622808,-2.13064 2.482279,2.2456 c 0.116151,0.10508 0.294194,0.10102 0.405438,-0.009 l 0.847389,-0.83984 c 0.111243,-0.11026 0.116902,-0.28825 0.01286,-0.40534 l -2.223311,-2.50226 c -0.112377,-0.12648 -0.307901,-0.13269 -0.428063,-0.0136 l -1.106375,1.09652 c -0.120163,0.11909 -0.115687,0.31465 0.0098,0.42815 z"
         style="fill:#ffffff;stroke-width:0.024576" /></g><g
       id="g1995"
       transform="matrix(3.7795276,0,0,3.7795276,233.1882,-14.636069)"><g
         id="g223"
         transform="matrix(0.03664876,0,0,0.03664876,134.94874,52.481584)"
         style="fill:#77b72b;fill-opacity:1"><g
           id="g221"
           transform="matrix(0.1,0,0,-0.1,0,512)"
           style="fill:#77b72b;fill-opacity:1"><path
             id="path217"
             d="M 7862.8,5000.2 C 7809.2,4971.5 6052.7,3216.9 6052.7,3192 c 0,-24.9 1995.9,-2020.8 2020.8,-2020.8 11.5,0 421.4,402.3 913.7,896.4 597.6,597.6 898.3,911.8 906,948.2 7.7,28.7 9.6,70.9 1.9,95.8 -5.7,23 -431,461.6 -944.3,976.9 -819.8,817.9 -942.4,932.8 -992.2,932.8 -32.6,-0.1 -74.7,-9.6 -95.8,-21.1 z M 7763.2,3760.9 7949,3575.1 7757.4,3383.6 7565.9,3192 l -191.6,191.5 -191.5,191.5 185.8,185.8 c 103.4,103.4 191.6,187.7 197.3,187.7 5.7,0 93.9,-84.2 197.3,-187.6 z m 894.5,-894.6 182,-182 -191.5,-191.5 -191.5,-191.5 -191.6,191.5 -191.5,191.5 182,182 c 99.6,99.6 189.6,182 201.1,182 11.4,0 101.4,-82.4 201,-182 z"
             style="fill:#77b72b;fill-opacity:1" /><path
             id="path219"
             d="m 4844,3444.8 c -38.3,-15.3 -93.9,-44.1 -124.5,-67 C 4688.9,3356.7 3757.9,2429.6 2650.8,1320.6 1110.8,-223.3 614.7,-730.9 538.1,-845.8 99.4,-1493.3 -17.4,-2307.3 222,-3050.5 c 197.3,-612.9 664.7,-1162.7 1245.1,-1457.7 699.1,-358.2 1559.2,-363.9 2252.6,-17.2 371.6,185.8 331.4,149.4 2492,2304.3 1130.1,1126.3 2049.5,2059.1 2076.4,2107 38.3,61.3 51.7,116.8 59.4,224.1 17.2,266.3 86.2,185.8 -1561.1,1829.3 -992.2,988.4 -1476.8,1459.6 -1528.5,1484.5 -95.9,44 -320,55.5 -413.9,21 z"
             style="fill:#77b72b;fill-opacity:1" /></g></g><g
         id="g10"
         transform="matrix(0.04486551,-0.04387014,-0.04387014,-0.04486551,145.41246,92.521245)"><g
           id="g18"
           transform="scale(0.1)"
           style="fill:#ffffff" /></g></g><g
       id="g6375"
       transform="matrix(3.7795276,0,0,3.7795276,194.79629,-62.257384)"><rect
         y="112.13052"
         x="72.051437"
         height="16.359751"
         width="19.040552"
         id="rect6314"
         style="opacity:0.54;fill:#ffaaaa;fill-opacity:1;stroke:none;stroke-width:1.16967;stroke-miterlimit:4;stroke-dasharray:none;stroke-opacity:1" /><g
         style="stroke:#aa0000"
         id="g6336"><rect
           style="opacity:1;fill:none;fill-opacity:1;stroke:#aa0000;stroke-width:0.465;stroke-linecap:round;stroke-linejoin:round;stroke-miterlimit:4;stroke-dasharray:none;stroke-opacity:1"
           id="rect6316"
           width="10.824412"
           height="3.5413182"
           x="72.193176"
           y="112.09727" /><rect
           y="112.10544"
           x="83.621574"
           height="3.5249927"
           width="7.3320131"
           id="rect6326"
           style="opacity:1;fill:none;fill-opacity:1;stroke:#aa0000;stroke-width:0.481007;stroke-linejoin:round;stroke-miterlimit:4;stroke-dasharray:none;stroke-opacity:1" /></g><g
         style="stroke:#aa0000"
         transform="matrix(-1,0,0,1,163.15477,4.2333335)"
         id="g6342"><rect
           y="112.09727"
           x="72.193176"
           height="3.5413182"
           width="10.824412"
           id="rect6338"
           style="opacity:1;fill:none;fill-opacity:1;stroke:#aa0000;stroke-width:0.465;stroke-linecap:round;stroke-linejoin:round;stroke-miterlimit:4;stroke-dasharray:none;stroke-opacity:1" /><rect
           style="opacity:1;fill:none;fill-opacity:1;stroke:#aa0000;stroke-width:0.481007;stroke-linejoin:round;stroke-miterlimit:4;stroke-dasharray:none;stroke-opacity:1"
           id="rect6340"
           width="7.3320131"
           height="3.5249927"
           x="83.621574"
           y="112.10544" /></g><g
         style="stroke:#aa0000"
         id="g6348"
         transform="translate(2.5314283e-6,8.4666671)"><rect
           style="opacity:1;fill:none;fill-opacity:1;stroke:#aa0000;stroke-width:0.465;stroke-linecap:round;stroke-linejoin:round;stroke-miterlimit:4;stroke-dasharray:none;stroke-opacity:1"
           id="rect6344"
           width="10.824412"
           height="3.5413182"
           x="72.193176"
           y="112.09727" /><rect
           y="112.10544"
           x="83.621574"
           height="3.5249927"
           width="7.3320131"
           id="rect6346"
           style="opacity:1;fill:none;fill-opacity:1;stroke:#aa0000;stroke-width:0.481007;stroke-linejoin:round;stroke-miterlimit:4;stroke-dasharray:none;stroke-opacity:1" /></g><g
         style="stroke:#aa0000"
         transform="matrix(-1,0,0,1,163.15477,12.700002)"
         id="g6354"><rect
           y="112.09727"
           x="72.193176"
           height="3.5413182"
           width="10.824412"
           id="rect6350"
           style="opacity:1;fill:none;fill-opacity:1;stroke:#aa0000;stroke-width:0.465;stroke-linecap:round;stroke-linejoin:round;stroke-miterlimit:4;stroke-dasharray:none;stroke-opacity:1" /><rect
           style="opacity:1;fill:none;fill-opacity:1;stroke:#aa0000;stroke-width:0.481007;stroke-linejoin:round;stroke-miterlimit:4;stroke-dasharray:none;stroke-opacity:1"
           id="rect6352"
           width="7.3320131"
           height="3.5249927"
           x="83.621574"
           y="112.10544" /></g></g><g
       id="g4"
       transform="matrix(0.29541307,0,0,0.29606512,734.75671,451.44467)">
	<g
   id="g3">
		<g
   id="g1">
			<polygon
   style="fill:#010002"
   points="249.108,197.931 154.744,292.295 173.895,311.454 235.558,249.783 235.558,433.57 262.659,433.57 262.659,249.791 324.314,311.438 343.481,292.295 "
   id="polygon1" />
		</g>
		<g
   id="g2">
			<path
   style="fill:#010002"
   d="m 393.732,156.044 c -4.487,0 -9.015,0.293 -13.526,0.878 -22.923,-33.555 -64.663,-51.608 -105.436,-44.106 -19.2,-29.873 -52.372,-48.17 -88.13,-48.17 -54.063,0 -98.526,40.651 -104.208,93.812 C 34.246,168.79 0,210.782 0,260.895 c 0,57.819 47.04,104.85 104.85,104.85 H 209.562 V 338.872 H 104.85 c -43,0 -77.986,-34.985 -77.986,-77.986 0,-40.049 30.003,-73.385 69.776,-77.538 l 12.022,-2.723 v -11.144 c 0,-43 34.977,-77.977 77.977,-77.977 29.466,0 56.087,16.379 69.491,42.748 l 5.032,9.917 10.681,-3.097 c 35.319,-10.234 72.686,5.958 89.943,37.123 l 4.861,8.763 9.795,-2.154 c 5.731,-1.268 11.526,-1.91 17.257,-1.91 42.821,0 77.644,34.985 77.644,77.977 0,43 -34.985,77.986 -77.986,77.986 H 287.93 v 26.873 h 105.436 c 57.81,0 104.85,-47.032 104.85,-104.85 10e-4,-57.796 -46.869,-104.836 -104.484,-104.836 z"
   id="path1" />
		</g>
	</g>
</g></g></svg>
